<svg width="85px" height="69px" viewBox="0 0 85 69" version="1.1" xmlns="http://www.w3.org/2000/svg" xmlns:xlink="http://www.w3.org/1999/xlink">
	<g id="Page-1" stroke="none" stroke-width="1" fill="none" fill-rule="evenodd">
		<g id="camera" fill="#FFFFFF" fill-rule="nonzero">
			<g id="Shape">
				<path d="M72.286,68.984 L12.714,68.984 C6.117,68.984 0.75,63.617 0.75,57.02 L0.75,24.127 C0.75,17.529 6.117,12.162 12.714,12.162 L21.613,12.162 L29.764,0.016 L55.236,0.016 L63.386,12.162 L72.285,12.162 C78.882,12.162 84.249,17.529 84.249,24.127 L84.249,57.02 C84.25,63.617 78.883,68.984 72.286,68.984 Z M12.714,14.163 C7.22,14.163 2.75,18.633 2.75,24.128 L2.75,57.02 C2.75,62.514 7.22,66.984 12.714,66.984 L72.286,66.984 C77.78,66.984 82.25,62.514 82.25,57.02 L82.25,24.127 C82.25,18.632 77.78,14.162 72.286,14.162 L62.32,14.162 L54.17,2.016 L30.831,2.016 L22.68,14.163 L12.714,14.163 Z M42.5,57.781 C33.012,57.781 25.293,50.062 25.293,40.573 C25.293,31.084 33.012,23.366 42.5,23.366 C51.988,23.366 59.707,31.085 59.707,40.574 C59.707,50.063 51.988,57.781 42.5,57.781 Z M42.5,25.366 C34.115,25.366 27.293,32.188 27.293,40.574 C27.293,48.96 34.115,55.781 42.5,55.781 C50.885,55.781 57.707,48.959 57.707,40.573 C57.707,32.187 50.885,25.366 42.5,25.366 Z M74.837,24.539 L68.627,24.539 C66.848,24.539 65.398,23.091 65.398,21.31 C65.398,19.53 66.847,18.082 68.627,18.082 L74.837,18.082 C76.617,18.082 78.066,19.53 78.066,21.31 C78.065,23.09 76.617,24.539 74.837,24.539 Z M68.627,20.082 C67.949,20.082 67.398,20.633 67.398,21.31 C67.398,21.987 67.949,22.539 68.627,22.539 L74.837,22.539 C75.514,22.539 76.066,21.988 76.066,21.31 C76.066,20.632 75.514,20.082 74.837,20.082 L68.627,20.082 Z">
				</path>
			</g>
		</g>
	</g>
</svg>
