<svg width="10" height="6" viewBox="0 0 10 6" fill="none" xmlns="http://www.w3.org/2000/svg">
<path d="M0.564146 0.148829L4.69618 5.84531C4.84618 6.05156 5.15321 6.05156 5.30204 5.84531L9.43524 0.148829C9.44541 0.134819 9.4515 0.118265 9.45284 0.101004C9.45418 0.0837431 9.45072 0.066448 9.44283 0.0510364C9.43494 0.0356247 9.42294 0.0226984 9.40816 0.01369C9.39337 0.00468162 9.37638 -5.6782e-05 9.35907 0H8.48016C8.4204 0 8.36415 0.0292966 8.32899 0.0773435L4.99969 4.66641L1.6704 0.0773435C1.63524 0.0292966 1.57899 0 1.51922 0L0.640318 0C0.564146 0 0.519615 0.0867191 0.564146 0.148829V0.148829Z" fill="white"/>
</svg>
