<svg width="12" height="12" viewBox="0 0 12 12" fill="none" xmlns="http://www.w3.org/2000/svg">
<path d="M10.4359 8.85117L6.30382 3.15469C6.15382 2.94844 5.84679 2.94844 5.69796 3.15469L1.56476 8.85117C1.55459 8.86518 1.5485 8.88173 1.54716 8.899C1.54582 8.91626 1.54928 8.93355 1.55717 8.94896C1.56506 8.96438 1.57706 8.9773 1.59184 8.98631C1.60663 8.99532 1.62362 9.00006 1.64093 9H2.51984C2.5796 9 2.63585 8.9707 2.67101 8.92266L6.00031 4.33359L9.3296 8.92266C9.36476 8.9707 9.42101 9 9.48078 9H10.3597C10.4359 9 10.4804 8.91328 10.4359 8.85117Z" fill="white"/>
</svg>
