<svg width="24" height="24" viewBox="0 0 24 24" fill="none" xmlns="http://www.w3.org/2000/svg">
<path d="M21.7031 3.84375H2.20312C1.78828 3.84375 1.45312 4.17891 1.45312 4.59375V19.5938C1.45312 20.0086 1.78828 20.3438 2.20312 20.3438H21.7031C22.118 20.3438 22.4531 20.0086 22.4531 19.5938V4.59375C22.4531 4.17891 22.118 3.84375 21.7031 3.84375ZM20.7656 18.6562H3.14062V5.53125H20.7656V18.6562ZM5.32266 16.7273C5.39531 16.8 5.51484 16.8 5.5875 16.7273L9.63047 12.6844L12.3117 15.368C12.3844 15.4406 12.5039 15.4406 12.5766 15.368L19.5375 8.40234C19.6102 8.32969 19.6102 8.21016 19.5375 8.1375L18.675 7.275C18.6398 7.24011 18.5922 7.22053 18.5426 7.22053C18.493 7.22053 18.4454 7.24011 18.4102 7.275L12.4453 13.2422L9.76406 10.5586C9.72882 10.5237 9.68123 10.5041 9.63164 10.5041C9.58205 10.5041 9.53446 10.5237 9.49922 10.5586L4.4625 15.5977C4.42761 15.6329 4.40803 15.6805 4.40803 15.7301C4.40803 15.7797 4.42761 15.8273 4.4625 15.8625L5.32266 16.7273Z" fill="white"/>
</svg>
