<svg width="24" height="24" viewBox="0 0 24 24" fill="none" xmlns="http://www.w3.org/2000/svg">
<path d="M8.90595 16.4996H15.0934C15.1966 16.4996 15.2809 16.4152 15.2809 16.3121V14.3434C15.2809 14.2402 15.1966 14.1559 15.0934 14.1559H14.1559C14.0528 14.1559 13.9684 14.2402 13.9684 14.3434V15.1871H10.0309V14.3434C10.0309 14.2402 9.94657 14.1559 9.84345 14.1559H8.90595C8.80282 14.1559 8.71845 14.2402 8.71845 14.3434V16.3121C8.71845 16.4152 8.80282 16.4996 8.90595 16.4996ZM16.8747 13.6168C16.8747 13.8654 16.9735 14.1039 17.1493 14.2797C17.3251 14.4555 17.5636 14.5543 17.8122 14.5543C18.0608 14.5543 18.2993 14.4555 18.4751 14.2797C18.6509 14.1039 18.7497 13.8654 18.7497 13.6168C18.7497 13.3682 18.6509 13.1297 18.4751 12.9539C18.2993 12.7781 18.0608 12.6793 17.8122 12.6793C17.5636 12.6793 17.3251 12.7781 17.1493 12.9539C16.9735 13.1297 16.8747 13.3682 16.8747 13.6168ZM22.4763 9.68867L21.9208 8.71836C21.8958 8.67559 21.8549 8.64443 21.8071 8.63169C21.7592 8.61896 21.7083 8.62568 21.6653 8.65039L20.477 9.34414L18.6419 4.27695C18.545 3.9746 18.3545 3.71085 18.098 3.52381C17.8414 3.33676 17.532 3.23609 17.2145 3.23633H7.05907C6.24579 3.23633 5.52392 3.76133 5.27314 4.53711L3.5247 9.34649L2.33407 8.65274C2.29115 8.62803 2.24019 8.6213 2.19232 8.63404C2.14446 8.64677 2.10358 8.67793 2.07861 8.7207L1.52314 9.68867C1.47157 9.77774 1.50204 9.89024 1.59111 9.9418L3.00673 10.7668L2.66689 11.7043C2.63876 11.7793 2.6247 11.859 2.6247 11.9387V20.0996C2.6247 20.4676 2.90126 20.7652 3.24111 20.7652H4.82548C5.11376 20.7652 5.36454 20.5473 5.42548 20.2426L5.60595 19.359H18.3934L18.5739 20.2426C18.6372 20.5473 18.8856 20.7652 19.1739 20.7652H20.7583C21.0981 20.7652 21.3747 20.4676 21.3747 20.0996V11.9387C21.3747 11.859 21.3606 11.7793 21.3325 11.7043L20.9927 10.7668L22.4059 9.9418C22.4485 9.91723 22.4797 9.87695 22.4928 9.82961C22.506 9.78227 22.5 9.73166 22.4763 9.68867ZM19.6872 12.1168V17.6715H4.3122V12.1168L4.67782 11.109H19.3216L19.6872 12.1168ZM6.85986 5.11133L6.87157 5.08086L6.88095 5.05039C6.90673 4.97305 6.97704 4.92148 7.05907 4.92148H17.0809L18.8481 9.79649H5.15595L6.85986 5.11133ZM5.2497 13.6168C5.2497 13.8654 5.34847 14.1039 5.52429 14.2797C5.7001 14.4555 5.93856 14.5543 6.1872 14.5543C6.43584 14.5543 6.6743 14.4555 6.85011 14.2797C7.02593 14.1039 7.1247 13.8654 7.1247 13.6168C7.1247 13.3682 7.02593 13.1297 6.85011 12.9539C6.6743 12.7781 6.43584 12.6793 6.1872 12.6793C5.93856 12.6793 5.7001 12.7781 5.52429 12.9539C5.34847 13.1297 5.2497 13.3682 5.2497 13.6168Z" fill="white"/>
</svg>
